<svg width="576" height="403" viewBox="0 0 576 403" fill="none" xmlns="http://www.w3.org/2000/svg">
<path d="M576 401.885H330.969V403H576V401.885Z" fill="#3F3D56"/>
<path d="M557.256 385.721H312.225V386.835H557.256V385.721Z" fill="#3F3D56"/>
<path d="M479.604 369.556H234.573V370.671H479.604V369.556Z" fill="#3F3D56"/>
<path d="M176.325 320.826C174.84 320.826 173.339 320.802 171.865 320.754L171.899 319.64C174.014 319.709 176.173 319.728 178.299 319.697L178.313 320.812C177.652 320.821 176.989 320.826 176.325 320.826ZM184.757 320.568L184.695 319.455C186.813 319.325 188.959 319.142 191.072 318.912L191.184 320.02C189.055 320.252 186.893 320.437 184.757 320.568H184.757ZM165.427 320.394C163.291 320.224 161.132 320 159.01 319.729L159.141 318.623C161.246 318.892 163.388 319.114 165.509 319.282L165.427 320.394ZM197.58 319.168L197.419 318.066C199.524 317.734 201.645 317.348 203.722 316.918L203.931 318.011C201.838 318.444 199.701 318.833 197.58 319.168ZM152.63 318.76C150.519 318.388 148.389 317.96 146.298 317.488L146.525 316.398C148.6 316.867 150.714 317.292 152.809 317.661L152.63 318.76ZM210.225 316.552L209.968 315.47C212.034 314.938 214.112 314.35 216.144 313.723L216.448 314.792C214.401 315.424 212.307 316.016 210.225 316.552ZM140.03 315.913C137.96 315.34 135.876 314.709 133.838 314.038L134.161 312.976C136.184 313.641 138.251 314.267 140.305 314.835L140.03 315.913ZM222.587 312.735L222.235 311.682C224.24 310.957 226.257 310.172 228.23 309.35L228.628 310.386C226.64 311.214 224.607 312.004 222.587 312.735ZM127.719 311.862C125.709 311.093 123.686 310.263 121.707 309.395L122.123 308.367C124.086 309.229 126.094 310.052 128.089 310.816L127.719 311.862ZM234.545 307.755L234.101 306.74C236.027 305.83 237.962 304.858 239.854 303.851L240.341 304.844C238.435 305.858 236.485 306.837 234.545 307.755ZM246.004 301.658L245.474 300.69C247.321 299.593 249.164 298.44 250.952 297.263L251.524 298.205C249.723 299.391 247.865 300.553 246.004 301.658ZM256.888 294.491L256.275 293.578C258.014 292.313 259.749 290.989 261.433 289.642L262.085 290.526C260.389 291.883 258.64 293.217 256.888 294.491ZM93.6439 292.921C91.9152 291.614 90.1883 290.245 88.5108 288.851L89.1791 287.98C90.8438 289.364 92.5576 290.722 94.273 292.019L93.6439 292.921ZM267.104 286.319L266.414 285.466C268.035 284.043 269.648 282.559 271.209 281.057L271.936 281.876C270.363 283.389 268.738 284.884 267.104 286.319ZM83.5624 284.543C81.9524 283.075 80.3528 281.549 78.8085 280.006L79.5501 279.201C81.0829 280.733 82.6702 282.248 84.2679 283.705L83.5624 284.543ZM276.569 277.207L275.806 276.424C277.3 274.848 278.778 273.217 280.198 271.577L280.994 272.323C279.563 273.976 278.074 275.619 276.569 277.207ZM74.2591 275.249C72.7819 273.633 71.3231 271.962 69.923 270.283L70.7321 269.552C72.1214 271.219 73.569 272.877 75.0352 274.481L74.2591 275.249ZM285.202 267.234L284.374 266.527C285.724 264.817 287.053 263.053 288.325 261.282L289.183 261.949C287.901 263.734 286.562 265.512 285.202 267.234ZM65.8095 265.118C64.483 263.373 63.1768 261.572 61.9272 259.764L62.7963 259.113C64.0366 260.907 65.3328 262.694 66.6494 264.426L65.8095 265.118ZM292.929 256.48L292.043 255.854C293.237 254.023 294.407 252.139 295.52 250.253L296.433 250.837C295.311 252.737 294.132 254.635 292.929 256.48ZM58.2846 254.234C57.1176 252.372 55.9754 250.456 54.8894 248.537L55.8119 247.971C56.8898 249.875 58.0234 251.777 59.1815 253.624L58.2846 254.234ZM299.685 245.031L298.747 244.492C299.776 242.555 300.774 240.566 301.717 238.58L302.678 239.074C301.728 241.075 300.721 243.079 299.685 245.031ZM305.404 232.979L304.423 232.532C305.277 230.503 306.096 228.425 306.859 226.357L307.859 226.756C307.09 228.841 306.264 230.935 305.404 232.979ZM46.2589 230.574C45.4378 228.523 44.6515 226.424 43.922 224.336L44.9287 223.955C45.6525 226.027 46.4328 228.109 47.2474 230.145L46.2589 230.574ZM310.036 220.42L309.019 220.07C309.688 217.973 310.318 215.831 310.894 213.701L311.925 214.002C311.345 216.149 310.709 218.308 310.036 220.42ZM41.8588 217.977C41.2216 215.853 40.6228 213.682 40.0791 211.526L41.1151 211.243C41.6546 213.383 42.249 215.537 42.8812 217.645L41.8588 217.977ZM313.527 207.501L312.483 207.248C312.963 205.1 313.401 202.906 313.787 200.728L314.84 200.929C314.452 203.124 314.01 205.335 313.527 207.501ZM38.5876 204.996C38.141 202.819 37.7367 200.6 37.3863 198.402L38.4427 198.219C38.7908 200.401 39.1919 202.602 39.6351 204.763L38.5876 204.996ZM315.861 194.303L314.799 194.152C315.087 191.968 315.331 189.742 315.522 187.534L316.589 187.634C316.396 189.86 316.151 192.103 315.861 194.303H315.861ZM36.4768 191.758C36.2242 189.551 36.0169 187.303 35.8602 185.078L36.9287 184.996C37.0838 187.205 37.2898 189.436 37.5406 191.626L36.4768 191.758ZM317.026 180.939L315.956 180.889C316.051 178.68 316.099 176.439 316.099 174.23H317.17C317.17 176.456 317.122 178.714 317.026 180.939ZM35.5357 178.374C35.4991 177.007 35.4806 175.613 35.4803 174.23C35.4803 173.372 35.4873 172.516 35.5015 171.661L36.5725 171.681C36.5584 172.529 36.5514 173.379 36.5514 174.23C36.5516 175.602 36.5702 176.987 36.6063 178.344L35.5357 178.374ZM36.8267 165.026L35.7577 164.956C35.8913 162.729 36.076 160.479 36.3058 158.269L37.3706 158.389C37.1423 160.582 36.9595 162.815 36.8267 165.026H36.8267ZM315.408 158.224C315.194 156.027 314.9 154.955 314.589 152.767L315.649 152.604C315.961 154.809 316.23 156.492 316.446 158.706L315.408 158.224ZM38.2045 151.786L37.146 151.615C37.4741 149.41 37.8554 147.187 38.2793 145.008L39.3289 145.229C38.9084 147.392 38.53 149.598 38.2045 151.786H38.2045ZM313.508 146.203C313.099 144.028 312.639 141.839 312.138 139.697L313.178 139.433C313.683 141.592 314.148 143.798 314.559 145.989L313.508 146.203ZM40.7415 138.733L39.7026 138.462C40.2227 136.303 40.7987 134.126 41.4148 131.991L42.4404 132.312C41.8293 134.43 41.2577 136.591 40.7415 138.733ZM310.481 133.263C309.884 131.14 309.231 129.005 308.541 126.916L309.554 126.554C310.249 128.659 310.907 130.811 311.509 132.95L310.481 133.263ZM44.4285 125.961L43.4181 125.591C44.1299 123.484 44.8984 121.367 45.7022 119.298L46.6953 119.716C45.8975 121.769 45.1348 123.87 44.4285 125.961ZM306.322 120.669C305.54 118.617 304.704 116.558 303.834 114.549L304.811 114.091C305.687 116.116 306.53 118.191 307.317 120.258L306.322 120.669ZM49.2357 113.588L48.2625 113.123C49.157 111.095 50.1091 109.062 51.0923 107.079L52.0441 107.591C51.0683 109.558 50.1235 111.576 49.2357 113.588ZM301.08 108.552C300.121 106.584 299.106 104.612 298.061 102.691L298.993 102.142C300.046 104.077 301.069 106.065 302.035 108.048L301.08 108.552ZM55.1143 101.735L54.186 101.179C55.2545 99.2478 56.3812 97.3149 57.5352 95.4342L58.4378 96.0341C57.2928 97.9006 56.1744 99.8188 55.1143 101.735ZM294.787 96.9776C293.656 95.1024 292.471 93.2343 291.265 91.4249L292.145 90.7896C293.36 92.6129 294.554 94.4952 295.694 96.3849L294.787 96.9776ZM62.0082 90.4987L61.1328 89.8564C62.3675 88.0337 63.6585 86.217 64.9707 84.4566L65.8168 85.1397C64.5149 86.887 63.2333 88.6899 62.0082 90.4987ZM287.502 86.0439C286.211 84.2843 284.867 82.5351 283.506 80.8449L284.327 80.1288C285.698 81.8321 287.052 83.5943 288.353 85.3672L287.502 86.0439ZM69.8556 79.9688L69.0402 79.2459C70.4259 77.5519 71.8701 75.8658 73.3326 74.2345L74.1155 74.9949C72.6642 76.614 71.231 78.2876 69.8556 79.9688ZM279.286 75.8395C277.847 74.2095 276.355 72.5939 274.851 71.0382L275.606 70.2472C277.122 71.8152 278.625 73.4428 280.075 75.085L279.286 75.8395ZM78.5872 70.2298L77.8383 69.4329C79.3699 67.8734 80.9548 66.3315 82.5486 64.8504L83.2619 65.6821C81.6802 67.1519 80.1073 68.682 78.5872 70.2298V70.2298ZM270.21 66.4507C268.634 64.9622 267.006 63.4942 265.372 62.0873L266.055 61.2284C267.701 62.6459 269.341 64.1251 270.93 65.625L270.21 66.4507ZM88.1296 61.3607L87.4534 60.4962C89.1099 59.0922 90.8218 57.7074 92.542 56.3803L93.18 57.2757C91.4727 58.593 89.7736 59.9672 88.1296 61.3607V61.3607ZM98.4022 53.436L97.8044 52.5111C99.5773 51.2695 101.403 50.0537 103.23 48.8968L103.786 49.8493C101.973 50.9973 100.162 52.2041 98.4022 53.436ZM109.32 46.5234L108.806 45.5453C110.682 44.477 112.605 43.4406 114.523 42.4643L114.993 43.4659C113.091 44.4346 111.182 45.4631 109.32 46.5234H109.32ZM238.582 43.9406C236.676 42.9523 234.724 41.9976 232.78 41.103L233.213 40.0834C235.172 40.9848 237.14 41.9469 239.06 42.9428L238.582 43.9406ZM120.793 40.683L120.367 39.6602C122.327 38.7759 124.332 37.9278 126.326 37.1393L126.706 38.1818C124.728 38.964 122.738 39.8055 120.793 40.683H120.793ZM226.856 38.5457C224.873 37.7452 222.843 36.9815 220.823 36.2761L221.164 35.219C223.199 35.9301 225.244 36.6996 227.243 37.5065L226.856 38.5457ZM132.74 35.9612L132.406 34.9019C134.441 34.2073 136.518 33.5533 138.578 32.9586L138.864 34.0326C136.82 34.6229 134.759 35.2718 132.74 35.9612ZM214.71 34.3037C212.667 33.6975 210.584 33.1331 208.517 32.626L208.763 31.5412C210.846 32.052 212.945 32.6208 215.004 33.2313L214.71 34.3037ZM145.069 32.3998L144.83 31.3131C146.917 30.8169 149.042 30.3648 151.148 29.9697L151.338 31.0665C149.249 31.459 147.139 31.9075 145.069 32.3998ZM202.257 31.2478C200.171 30.8403 198.047 30.4778 195.942 30.1702L196.091 29.0663C198.212 29.3763 200.353 29.7416 202.455 30.152L202.257 31.2478ZM157.66 30.0347L157.518 28.9297C159.639 28.6352 161.795 28.3875 163.927 28.1943L164.02 29.3047C161.904 29.4969 159.765 29.7424 157.66 30.0347ZM189.587 29.3951C187.477 29.1883 185.33 29.0288 183.204 28.9218L183.256 27.8081C185.397 27.9162 187.561 28.0767 189.687 28.2852L189.587 29.3951ZM170.407 28.8772L170.362 27.7635C172.33 27.678 174.336 27.6345 176.325 27.6339L176.81 27.6347L176.807 28.7495L176.325 28.7487C174.352 28.7493 172.36 28.7925 170.407 28.8772Z" fill="#3F3D56"/>
<path d="M416.891 130.076L414.214 149.027C414.214 149.027 402.432 173.553 409.929 198.636L419.569 192.505C419.569 192.505 427.066 162.405 427.066 160.175C427.066 157.946 430.28 131.748 430.28 131.748L416.891 130.076Z" fill="#FFB9B9"/>
<path d="M422.247 190.832L409.394 199.751L415.82 232.637C415.82 232.637 417.427 277.229 416.891 278.901C416.356 280.574 406.716 348.576 406.716 348.576C406.716 348.576 417.962 354.15 428.137 350.806C428.137 350.806 438.313 300.64 438.313 286.148L450.094 235.424L468.302 293.394C468.302 293.394 469.373 332.412 471.516 345.232C473.658 358.052 473.658 359.724 473.658 359.724C473.658 359.724 490.795 364.741 495.079 359.724C495.079 359.724 492.937 293.951 491.33 287.262L487.582 207.554L422.247 190.832Z" fill="#2F2E41"/>
<path d="M411 348.576C411 348.576 409.929 346.904 406.716 351.363C403.503 355.823 393.328 364.184 393.328 364.184C393.328 364.184 365.48 384.807 386.366 385.922C407.252 387.037 411 375.889 411 375.889C411 375.889 428.673 372.545 429.208 368.643C429.744 364.741 427.066 349.134 427.066 349.134L411 348.576Z" fill="#2F2E41"/>
<path d="M474.729 358.61C474.729 358.61 470.98 371.987 472.051 377.561C473.122 383.135 469.909 403.759 484.904 402.087C499.899 400.415 495.079 382.578 495.079 382.578L490.259 359.724L474.729 358.61Z" fill="#2F2E41"/>
<path d="M453.575 66.8108C463.335 66.8108 471.248 58.5755 471.248 48.4166C471.248 38.2578 463.335 30.0225 453.575 30.0225C443.815 30.0225 435.903 38.2578 435.903 48.4166C435.903 58.5755 443.815 66.8108 453.575 66.8108Z" fill="#FFB9B9"/>
<path d="M443.132 58.1712C443.132 58.1712 448.488 77.6801 444.203 84.9263C439.919 92.1725 473.122 86.0411 475.264 79.3523C475.264 79.3523 464.554 67.0895 466.16 55.3842L443.132 58.1712Z" fill="#FFB9B9"/>
<path d="M451.701 84.369C451.701 84.369 466.361 85.4006 473.49 77.0812L499.899 88.8282L488.653 153.487C488.653 153.487 511.145 208.112 490.795 213.128C470.444 218.145 411.536 213.128 414.214 194.734C416.891 176.34 427.602 154.044 427.602 154.044C427.602 154.044 430.279 129.518 424.389 118.37C418.498 107.222 422.247 94.4022 422.247 94.4022L445.819 78.1457C445.819 78.1457 446.881 84.369 451.701 84.369Z" fill="#575A89"/>
<path d="M428.673 94.9595H422.247C422.247 94.9595 414.749 96.6317 416.356 117.813L412.607 132.863C412.607 132.863 431.351 137.879 434.028 135.092C436.706 132.305 428.673 94.9595 428.673 94.9595Z" fill="#575A89"/>
<path d="M506.325 128.404L504.183 147.913C504.183 147.913 506.861 173.553 497.757 193.619L494.543 203.653C494.543 203.653 491.33 232.637 482.762 232.637C474.193 232.637 482.762 199.751 482.762 199.751L487.046 166.864C487.046 166.864 490.259 154.044 488.117 148.47C485.975 142.896 485.439 131.191 485.439 131.191L506.325 128.404Z" fill="#FFB9B9"/>
<path d="M449.233 36.3807C451.856 35.9537 454.5 35.6809 457.152 35.5635C459.074 35.4785 461.076 35.4921 462.812 36.3528C465.431 37.6507 466.898 40.5846 467.858 43.4327C468.819 46.2809 469.5 49.3247 471.282 51.7064C474.246 48.4856 474.839 43.6972 475.28 39.2607C475.59 36.1401 475.866 32.8127 474.479 30.027C473.626 28.3112 472.217 26.9741 470.79 25.738C463.978 19.837 455.327 15.1938 446.556 16.5192L446.351 17.9285C444.854 17.8817 443.356 17.9796 441.877 18.2211L442.191 21.7177L437.532 22.0253L437.353 25.6694L432.642 25.8394C432.732 27.2398 433.318 28.5556 434.285 29.5334C433.56 30.0785 432.737 30.4654 431.865 30.6711C432.651 33.8366 433.414 37.0093 434.225 40.1676C434.823 42.4942 434.716 44.5499 437.114 43.4144C438.94 42.5499 440.175 39.8007 442.02 38.6649C444.195 37.3268 446.768 36.7821 449.233 36.3807Z" fill="#2F2E41"/>
<path d="M492.401 89.3856H499.899C499.899 89.3856 512.216 132.305 510.074 132.863C507.932 133.42 482.762 135.092 482.762 135.092L492.401 89.3856Z" fill="#575A89"/>
<path d="M173.492 216.751C197.449 216.751 216.87 196.537 216.87 171.602C216.87 146.667 197.449 126.453 173.492 126.453C149.535 126.453 130.113 146.667 130.113 171.602C130.113 196.537 149.535 216.751 173.492 216.751Z" fill="#F03861"/>
<path d="M200.804 167.143H177.776V143.175H169.207V167.143H146.18V176.061H169.207V200.03H177.776V176.061H200.804V167.143Z" fill="white"/>
<path d="M97.3391 247.87H38.3487V319.403H97.3391V247.87Z" fill="#F2F2F2"/>
<path d="M120.248 319.999H37.776V234.159H120.248V319.999ZM38.9214 318.807H119.103V235.352H38.9214V318.807Z" fill="#3F3D56"/>
<path d="M105.357 259.196H54.9576V260.388H105.357V259.196Z" fill="#3F3D56"/>
<path d="M105.357 272.31H54.9576V273.503H105.357V272.31Z" fill="#3F3D56"/>
<path d="M105.357 285.425H54.9576V286.617H105.357V285.425Z" fill="#3F3D56"/>
<path d="M239.271 12.728H120.383V74.1341H239.271V12.728Z" fill="#F2F2F2"/>
<path d="M263.37 74.6916H119.848V0H263.37V74.6916ZM120.919 73.5768H262.299V1.1148H120.919V73.5768Z" fill="#3F3D56"/>
<path d="M218.369 31.1681H141.285V32.2829H218.369V31.1681Z" fill="#3F3D56"/>
<path d="M218.369 42.8735H141.285V43.9883H218.369V42.8735Z" fill="#3F3D56"/>
<path d="M218.369 54.5789H141.285V55.6937H218.369V54.5789Z" fill="#3F3D56"/>
<path d="M334.687 167.7H283.811V223.998H334.687V167.7Z" fill="#F2F2F2"/>
<path d="M347.54 224.555H283.276V157.667H347.54V224.555ZM284.347 223.44H346.469V158.782H284.347V223.44Z" fill="#3F3D56"/>
<path d="M326.922 188.045H291.577V189.16H326.922V188.045Z" fill="#3F3D56"/>
<path d="M326.922 195.292H291.577V196.406H326.922V195.292Z" fill="#3F3D56"/>
<path d="M326.922 202.538H291.577V203.653H326.922V202.538Z" fill="#3F3D56"/>
<path d="M314.125 73.5768H69.0936V74.6916H314.125V73.5768Z" fill="#3F3D56"/>
<path d="M382.617 223.44H248.198V224.555H382.617V223.44Z" fill="#3F3D56"/>
<path d="M158.024 319.313H0V320.428H158.024V319.313Z" fill="#3F3D56"/>
</svg>
