<svg width="136" height="33" viewBox="0 0 136 33" fill="none" xmlns="http://www.w3.org/2000/svg">
<path d="M51.728 26.384C57.456 26.384 60.272 23.44 60.272 19.536C60.272 11.568 48.016 13.84 48.016 10.48C48.016 9.2 49.104 8.368 51.024 8.368C53.2 8.368 55.504 9.104 57.232 10.704L59.76 7.312C57.648 5.36 54.832 4.336 51.44 4.336C46.416 4.336 43.344 7.28 43.344 10.832C43.344 18.864 55.632 16.272 55.632 19.984C55.632 21.232 54.448 22.352 51.92 22.352C48.976 22.352 46.64 21.008 45.136 19.44L42.64 22.992C44.656 25.008 47.6 26.384 51.728 26.384ZM87.4275 26V14.832C87.4275 11.664 85.7315 10.16 82.8835 10.16C80.5155 10.16 78.4675 11.568 77.5715 12.944C77.0275 11.216 75.5555 10.16 73.2835 10.16C70.9155 10.16 68.8995 11.632 68.2275 12.528V10.544H64.1635V26H68.2275V15.568C68.8355 14.736 70.0195 13.776 71.4275 13.776C73.0915 13.776 73.7315 14.8 73.7315 16.24V26H77.8275V15.568C78.4035 14.736 79.5875 13.776 81.0275 13.776C82.6915 13.776 83.3315 14.8 83.3315 16.24V26H87.4275ZM101.237 26.384C105.205 26.384 108.085 23.408 108.085 18.256C108.085 13.104 105.205 10.16 101.237 10.16C99.3487 10.16 97.6527 10.992 96.4687 12.496V10.544H92.4047V31.888H96.4687V24.016C97.7487 25.616 99.4127 26.384 101.237 26.384ZM99.9567 22.768C98.6447 22.768 97.1407 21.968 96.4687 20.976V15.536C97.1727 14.512 98.6447 13.776 99.9567 13.776C102.293 13.776 103.893 15.6 103.893 18.256C103.893 20.944 102.293 22.768 99.9567 22.768ZM116.085 26V4.656H112.021V26H116.085ZM120.563 32.016C121.043 32.176 122.099 32.272 122.547 32.272C125.203 32.208 127.251 31.44 128.403 28.528L135.667 10.544H131.315L127.251 21.296L123.219 10.544H118.867L125.139 26.192L124.563 27.536C124.179 28.368 123.475 28.656 122.419 28.656C122.035 28.656 121.491 28.56 121.139 28.4L120.563 32.016Z" fill="#1C1C1C"/>
<path d="M20 13.75C22.075 13.75 23.7375 12.075 23.7375 10C23.7375 7.925 22.075 6.25 20 6.25C17.925 6.25 16.25 7.925 16.25 10C16.25 12.075 17.925 13.75 20 13.75ZM10 13.75C12.075 13.75 13.7375 12.075 13.7375 10C13.7375 7.925 12.075 6.25 10 6.25C7.925 6.25 6.25 7.925 6.25 10C6.25 12.075 7.925 13.75 10 13.75ZM10 16.25C7.0875 16.25 1.25 17.7125 1.25 20.625V23.75H18.75V20.625C18.75 17.7125 12.9125 16.25 10 16.25ZM20 16.25C19.6375 16.25 19.225 16.275 18.7875 16.3125C20.2375 17.3625 21.25 18.775 21.25 20.625V23.75H28.75V20.625C28.75 17.7125 22.9125 16.25 20 16.25Z" fill="#F03861"/>
</svg>
