<svg width="1440" height="227" viewBox="0 0 1440 227" fill="none" xmlns="http://www.w3.org/2000/svg">
<path fill-rule="evenodd" clip-rule="evenodd" d="M-109 191.001L-44.4583 155.001C20.0833 119.002 149.167 47.0025 278.25 17.0029C407.333 -12.9967 536.417 -0.996835 665.5 35.0027C794.583 71.0022 923.667 131.001 1052.75 149.001C1181.83 167.001 1310.92 143.001 1375.46 131.001L1440 119.001V227H1375.46C1310.92 227 1181.83 227 1052.75 227C923.667 227 794.583 227 665.5 227C536.417 227 407.333 227 278.25 227C149.167 227 20.0833 227 -44.4583 227H-109V191.001Z" fill="#F03861" fill-opacity="0.11"/>
</svg>
