<svg width="1440" height="1139" viewBox="0 0 1440 1139" fill="none" xmlns="http://www.w3.org/2000/svg">
<path fill-rule="evenodd" clip-rule="evenodd" d="M-159 284.75L-87.8333 213.562C-16.6667 142.375 125.667 0 268 0C410.333 0 552.667 142.375 695 213.562C837.333 284.75 979.667 284.75 1122 308.479C1264.33 332.208 1381.76 78.2343 1448.18 177.178L1549 372.764V1139H1477.83C1406.67 1139 1264.33 1139 1122 1139C979.667 1139 837.333 1139 695 1139C552.667 1139 410.333 1139 268 1139C125.667 1139 -16.6667 1139 -87.8333 1139H-159V284.75Z" fill="#F03861" fill-opacity="0.1"/>
</svg>
